<?xml version="1.0" encoding="UTF-8"?>
<!-- Generator: Adobe Illustrator 16.0.0, SVG Export Plug-In . SVG Version: 6.00 Build 0)  -->
<!DOCTYPE svg PUBLIC "-//W3C//DTD SVG 1.1//EN" "http://www.w3.org/Graphics/SVG/1.1/DTD/svg11.dtd">
<svg version="1.1" id="Layer_1" xmlns="http://www.w3.org/2000/svg" xmlns:xlink="http://www.w3.org/1999/xlink" x="0px" y="0px" width="36px" height="36px" viewBox="0 0 30 30" enable-background="new 0 0 30 30" xml:space="preserve">
<g>
	<path fill="#D81F2A" d="M14.876,0h-0.043C9.653,0,5.438,4.213,5.438,9.393c0,3.394,1.546,7.874,4.595,13.316   c2.261,4.033,4.553,7.121,4.575,7.153c0.064,0.086,0.165,0.137,0.272,0.137c0.002,0,0.005,0,0.009,0   c0.11-0.004,0.211-0.06,0.273-0.151c0.022-0.036,2.298-3.471,4.544-7.675c3.029-5.673,4.566-9.974,4.566-12.78   C24.272,4.213,20.057,0,14.876,0z M19.214,9.623c0,2.403-1.956,4.357-4.359,4.357c-2.404,0-4.359-1.954-4.359-4.357   c0-2.405,1.955-4.359,4.359-4.359C17.258,5.264,19.214,7.218,19.214,9.623z"/>
</g>
</svg>